<?xml version="1.0" encoding="UTF-8" standalone="no"?>
<!DOCTYPE svg PUBLIC "-//W3C//DTD SVG 1.1//EN" "http://www.w3.org/Graphics/SVG/1.1/DTD/svg11.dtd">
<svg version="1.1" xmlns="http://www.w3.org/2000/svg" xmlns:xlink="http://www.w3.org/1999/xlink" preserveAspectRatio="xMidYMid meet" viewBox="164.11224610998931 268.1055944886566 323.6579166171754 60.70982301936101" width="319.66" height="56.71"><defs><path d="M211.33 319.28C208.9 321.33 206.16 322.93 203.12 324.07C200.08 325.21 196.81 325.74 193.47 325.74C189.44 325.74 185.79 324.98 182.29 323.53C178.87 322.09 175.91 320.04 173.32 317.53C170.81 315.02 168.76 312.06 167.32 308.56C165.87 305.14 165.11 301.41 165.11 297.38C165.11 293.43 165.87 289.78 167.32 286.29C168.76 282.79 170.81 279.82 173.32 277.32C175.83 274.81 178.8 272.75 182.29 271.31C185.71 269.87 189.44 269.11 193.47 269.11C196.89 269.11 200.08 269.64 203.12 270.78C206.16 271.92 208.9 273.51 211.33 275.57C213.08 277.01 214.6 278.68 216.04 280.51C215.59 280.82 211.94 283.31 211.48 283.63C210.34 282.1 208.97 280.74 207.45 279.6C205.55 278.08 203.43 276.94 201.07 276.02C198.71 275.19 196.2 274.73 193.47 274.73C190.35 274.73 187.46 275.34 184.73 276.56C181.99 277.77 179.56 279.37 177.5 281.42C175.45 283.47 173.85 285.83 172.64 288.64C171.42 291.38 170.81 294.34 170.81 297.38C170.81 300.5 171.42 303.39 172.64 306.13C173.85 308.86 175.45 311.3 177.5 313.35C179.56 315.4 181.91 317 184.73 318.21C187.46 319.43 190.43 320.04 193.47 320.04C196.2 320.04 198.71 319.58 201.07 318.75C203.43 317.91 205.55 316.69 207.45 315.17C208.97 313.96 210.27 312.66 211.48 311.14C211.79 311.36 213.31 312.42 216.04 314.34C214.07 316.67 212.5 318.31 211.33 319.28Z" id="c2yCbBvYz3"></path><path d="M264.85 271.39C268.27 272.83 271.23 274.88 273.82 277.39C276.4 279.9 278.46 282.94 279.98 286.36C281.5 289.86 282.26 293.51 282.26 297.46C281.69 297.46 277.19 297.46 276.63 297.46C276.63 294.34 276.02 291.46 274.81 288.72C273.59 285.98 271.99 283.55 269.94 281.5C267.89 279.44 265.53 277.85 262.72 276.63C259.98 275.42 257.02 274.81 253.98 274.81C250.86 274.81 247.97 275.42 245.24 276.63C242.5 277.85 240.07 279.44 238.01 281.5C235.96 283.55 234.37 285.91 233.15 288.72C231.93 291.46 231.32 294.42 231.32 297.46C231.32 299.35 231.32 308.77 231.32 325.74L225.7 325.74C225.7 308.77 225.7 299.35 225.7 297.46C225.7 293.51 226.46 289.86 227.9 286.36C229.35 282.86 231.4 279.9 233.91 277.39C236.42 274.88 239.38 272.83 242.88 271.39C246.22 269.94 249.95 269.18 253.98 269.18C257.85 269.18 261.43 269.94 264.85 271.39Z" id="b11av5SlcS"></path><path d="M289.02 269.18L294.65 269.18L294.65 325.74L289.02 325.74L289.02 269.18Z" id="cXPqRGq3p"></path><path d="M340.64 271.39C344.06 272.83 347.02 274.88 349.61 277.39C352.19 279.9 354.25 282.94 355.77 286.36C357.29 289.86 358.05 293.51 358.05 297.46C358.05 301.49 357.29 305.14 355.77 308.64C354.25 312.06 352.19 315.02 349.61 317.61C347.02 320.11 343.98 322.17 340.64 323.61C337.22 325.06 333.65 325.82 329.77 325.82C325.74 325.82 322.09 325.06 318.59 323.61C315.17 322.17 312.21 320.11 309.62 317.61C307.11 315.1 305.06 312.13 303.62 308.64C302.17 305.21 301.41 301.49 301.41 297.46C301.41 293.51 302.17 289.86 303.62 286.36C305.06 282.86 307.11 279.9 309.62 277.39C312.13 274.88 315.1 272.83 318.59 271.39C322.01 269.94 325.74 269.18 329.77 269.18C333.65 269.18 337.22 269.94 340.64 271.39ZM338.51 318.29C341.25 317.07 343.68 315.48 345.73 313.42C347.78 311.37 349.38 309.02 350.6 306.2C351.81 303.47 352.42 300.5 352.42 297.46C352.42 294.34 351.81 291.46 350.6 288.72C349.38 285.98 347.78 283.55 345.73 281.5C343.68 279.44 341.32 277.85 338.51 276.63C335.77 275.42 332.81 274.81 329.77 274.81C326.65 274.81 323.76 275.42 321.03 276.63C318.29 277.85 315.86 279.44 313.8 281.5C311.75 283.55 310.16 285.91 308.94 288.72C307.72 291.46 307.11 294.42 307.11 297.46C307.11 300.58 307.72 303.47 308.94 306.2C310.16 308.94 311.75 311.37 313.8 313.42C315.86 315.48 318.21 317.07 321.03 318.29C323.76 319.51 326.65 320.11 329.77 320.11C332.89 320.11 335.77 319.51 338.51 318.29Z" id="c75HVMFc8L"></path><path d="M413.01 277.39C415.59 279.9 417.65 282.94 419.17 286.36C420.69 289.86 421.45 293.51 421.45 297.46C421.45 301.49 420.69 305.14 419.17 308.64C417.65 312.06 415.59 315.02 413.01 317.61C410.42 320.11 407.38 322.17 404.04 323.61C400.62 325.06 397.04 325.82 393.17 325.82C389.14 325.82 385.49 325.06 381.99 323.61C378.57 322.17 375.61 320.11 373.02 317.61C370.51 315.1 368.46 312.13 367.02 308.64C365.57 305.21 364.81 301.49 364.81 297.46C364.81 293.51 365.57 289.86 367.02 286.36C368.46 282.86 370.51 279.9 373.02 277.39C373.78 276.63 374.62 275.87 375.46 275.19C375.79 275.67 378.47 279.5 378.8 279.98C378.19 280.43 377.66 280.96 377.13 281.5C375.08 283.55 373.48 285.91 372.26 288.72C371.05 291.46 370.44 294.42 370.44 297.46C370.44 300.58 371.05 303.47 372.26 306.2C373.48 308.94 375.08 311.37 377.13 313.42C379.18 315.48 381.54 317.07 384.35 318.29C387.09 319.51 390.05 320.11 393.09 320.11C396.21 320.11 399.1 319.51 401.83 318.29C404.57 317.07 407 315.48 409.06 313.42C411.11 311.37 412.7 309.02 413.92 306.2C415.14 303.47 415.75 300.5 415.75 297.46C415.75 294.34 415.14 291.46 413.92 288.72C412.7 285.98 411.11 283.55 409.06 281.5C408.52 280.96 407.99 280.43 407.38 279.98C407.6 279.67 408.69 278.12 410.65 275.34C411.72 276.2 412.5 276.88 413.01 277.39Z" id="b3i54bs9f7"></path><path d="M467.36 271.46C470.78 272.98 473.75 275.04 476.33 277.62C478.92 280.2 480.97 283.25 482.49 286.59C484.01 290.01 484.77 293.58 484.77 297.46C484.77 299.35 484.77 308.77 484.77 325.74L479.14 325.74C479.14 308.77 479.14 299.35 479.14 297.46C479.14 294.34 478.54 291.46 477.32 288.72C476.1 285.98 474.51 283.55 472.46 281.5C470.4 279.44 468.05 277.85 465.23 276.63C462.5 275.42 459.53 274.81 456.49 274.81C453.37 274.81 450.49 275.42 447.75 276.63C445.01 277.85 442.58 279.44 440.53 281.5C438.47 283.55 436.88 285.91 435.66 288.72C434.45 291.46 433.84 294.42 433.84 297.46C433.84 299.35 433.84 308.77 433.84 325.74L428.21 325.74C428.21 308.77 428.21 299.35 428.21 297.46C428.21 293.58 428.97 290.01 430.42 286.59C431.86 283.17 433.91 280.2 436.42 277.62C438.93 275.04 441.9 272.98 445.39 271.46C448.74 269.94 452.46 269.18 456.49 269.18C460.37 269.18 463.94 269.94 467.36 271.46Z" id="a3Sx57ET9"></path><path d="M395.9 269.18C395.9 269.18 395.9 269.18 395.9 269.18C395.9 282 395.9 289.12 395.9 290.54C395.9 290.54 395.9 290.54 395.9 290.54C392.53 290.54 390.65 290.54 390.28 290.54C390.28 290.54 390.28 290.54 390.28 290.54C390.28 277.73 390.28 270.61 390.28 269.18C390.28 269.18 390.28 269.18 390.28 269.18C393.65 269.18 395.53 269.18 395.9 269.18Z" id="e3MK8bUVWR"></path></defs><g><g><use xlink:href="#c2yCbBvYz3" opacity="1" fill="#468ac0" fill-opacity="1"></use><g><use xlink:href="#c2yCbBvYz3" opacity="1" fill-opacity="0" stroke="#000000" stroke-width="1" stroke-opacity="0"></use></g></g><g><use xlink:href="#b11av5SlcS" opacity="1" fill="#468ac0" fill-opacity="1"></use><g><use xlink:href="#b11av5SlcS" opacity="1" fill-opacity="0" stroke="#000000" stroke-width="1" stroke-opacity="0"></use></g></g><g><use xlink:href="#cXPqRGq3p" opacity="1" fill="#468ac0" fill-opacity="1"></use><g><use xlink:href="#cXPqRGq3p" opacity="1" fill-opacity="0" stroke="#000000" stroke-width="1" stroke-opacity="0"></use></g></g><g><use xlink:href="#c75HVMFc8L" opacity="1" fill="#468ac0" fill-opacity="1"></use><g><use xlink:href="#c75HVMFc8L" opacity="1" fill-opacity="0" stroke="#000000" stroke-width="1" stroke-opacity="0"></use></g></g><g><use xlink:href="#b3i54bs9f7" opacity="1" fill="#46ad48" fill-opacity="1"></use><g><use xlink:href="#b3i54bs9f7" opacity="1" fill-opacity="0" stroke="#000000" stroke-width="1" stroke-opacity="0"></use></g></g><g><use xlink:href="#a3Sx57ET9" opacity="1" fill="#46ad48" fill-opacity="1"></use><g><use xlink:href="#a3Sx57ET9" opacity="1" fill-opacity="0" stroke="#000000" stroke-width="1" stroke-opacity="0"></use></g></g><g><use xlink:href="#e3MK8bUVWR" opacity="1" fill="#46ad48" fill-opacity="1"></use><g><use xlink:href="#e3MK8bUVWR" opacity="1" fill-opacity="0" stroke="#000000" stroke-width="1" stroke-opacity="0"></use></g></g></g></svg>