<?xml version="1.0" encoding="UTF-8"?>
<svg xmlns="http://www.w3.org/2000/svg" xmlns:xlink="http://www.w3.org/1999/xlink" width="42pt" height="30pt" viewBox="0 0 42 30" version="1.1">
<g id="surface1">
<path style=" stroke:none;fill-rule:nonzero;fill:rgb(27.45098%,54.117647%,75.294118%);fill-opacity:1;" d="M 14.183594 14.625 C 14.09375 14.746094 13.988281 14.855469 13.875 14.953125 C 13.714844 15.089844 13.535156 15.195312 13.335938 15.269531 C 13.136719 15.34375 12.921875 15.378906 12.703125 15.378906 C 12.4375 15.378906 12.199219 15.332031 11.96875 15.234375 C 11.746094 15.136719 11.550781 15.003906 11.378906 14.835938 C 11.214844 14.667969 11.082031 14.472656 10.988281 14.242188 C 10.890625 14.015625 10.84375 13.769531 10.84375 13.5 C 10.84375 13.238281 10.890625 12.996094 10.988281 12.765625 C 11.082031 12.53125 11.214844 12.335938 11.378906 12.171875 C 11.542969 12.003906 11.738281 11.867188 11.96875 11.773438 C 12.191406 11.675781 12.4375 11.625 12.703125 11.625 C 12.925781 11.625 13.136719 11.660156 13.335938 11.738281 C 13.535156 11.8125 13.714844 11.917969 13.875 12.054688 C 13.988281 12.148438 14.085938 12.261719 14.183594 12.382812 L 13.882812 12.589844 C 13.808594 12.488281 13.71875 12.398438 13.617188 12.320312 C 13.496094 12.222656 13.355469 12.144531 13.199219 12.085938 C 13.046875 12.027344 12.882812 12 12.703125 12 C 12.496094 12 12.308594 12.039062 12.128906 12.121094 C 11.949219 12.199219 11.789062 12.304688 11.65625 12.441406 C 11.519531 12.578125 11.414062 12.734375 11.335938 12.921875 C 11.253906 13.101562 11.214844 13.300781 11.214844 13.5 C 11.214844 13.707031 11.253906 13.898438 11.335938 14.082031 C 11.414062 14.261719 11.519531 14.421875 11.65625 14.558594 C 11.789062 14.695312 11.945312 14.800781 12.128906 14.882812 C 12.308594 14.960938 12.503906 15.003906 12.703125 15.003906 C 12.882812 15.003906 13.046875 14.972656 13.199219 14.917969 C 13.355469 14.863281 13.496094 14.78125 13.617188 14.679688 C 13.71875 14.597656 13.804688 14.515625 13.882812 14.414062 Z M 14.183594 14.625 "/>
<path style=" stroke:none;fill-rule:nonzero;fill:rgb(27.45098%,54.117647%,75.294118%);fill-opacity:1;" d="M 16.671875 11.632812 C 16.925781 11.632812 17.160156 11.679688 17.382812 11.777344 C 17.605469 11.871094 17.800781 12.007812 17.972656 12.175781 C 18.140625 12.339844 18.273438 12.542969 18.375 12.769531 C 18.476562 13 18.523438 13.242188 18.523438 13.503906 L 18.15625 13.503906 C 18.15625 13.300781 18.117188 13.109375 18.035156 12.925781 C 17.957031 12.746094 17.851562 12.582031 17.71875 12.449219 C 17.582031 12.3125 17.429688 12.207031 17.242188 12.125 C 17.0625 12.042969 16.871094 12.003906 16.671875 12.003906 C 16.464844 12.003906 16.277344 12.042969 16.097656 12.125 C 15.917969 12.207031 15.757812 12.3125 15.621094 12.449219 C 15.488281 12.582031 15.382812 12.738281 15.304688 12.925781 C 15.222656 13.109375 15.183594 13.304688 15.183594 13.503906 L 15.183594 15.378906 L 14.816406 15.378906 L 14.816406 13.503906 C 14.816406 13.242188 14.863281 13 14.960938 12.769531 C 15.054688 12.539062 15.1875 12.339844 15.355469 12.175781 C 15.519531 12.007812 15.710938 11.871094 15.941406 11.777344 C 16.160156 11.679688 16.40625 11.632812 16.671875 11.632812 Z M 16.671875 11.632812 "/>
<path style=" stroke:none;fill-rule:nonzero;fill:rgb(27.45098%,54.117647%,75.294118%);fill-opacity:1;" d="M 18.96875 15.378906 L 18.96875 11.632812 L 19.335938 11.632812 L 19.335938 15.378906 Z M 18.96875 15.378906 "/>
<path style=" stroke:none;fill-rule:nonzero;fill:rgb(27.45098%,54.117647%,75.294118%);fill-opacity:1;" d="M 21.640625 11.632812 C 21.894531 11.632812 22.128906 11.679688 22.355469 11.777344 C 22.578125 11.871094 22.773438 12.007812 22.941406 12.175781 C 23.113281 12.339844 23.246094 12.542969 23.347656 12.769531 C 23.445312 13 23.496094 13.242188 23.496094 13.503906 C 23.496094 13.773438 23.445312 14.015625 23.347656 14.246094 C 23.246094 14.472656 23.113281 14.667969 22.941406 14.839844 C 22.773438 15.007812 22.574219 15.144531 22.355469 15.238281 C 22.128906 15.335938 21.894531 15.386719 21.640625 15.386719 C 21.375 15.386719 21.136719 15.335938 20.90625 15.238281 C 20.683594 15.144531 20.488281 15.007812 20.320312 14.839844 C 20.15625 14.675781 20.019531 14.476562 19.925781 14.246094 C 19.832031 14.019531 19.78125 13.773438 19.78125 13.503906 C 19.78125 13.242188 19.832031 13 19.925781 12.769531 C 20.019531 12.539062 20.15625 12.339844 20.320312 12.175781 C 20.484375 12.007812 20.679688 11.871094 20.90625 11.777344 C 21.132812 11.679688 21.375 11.632812 21.640625 11.632812 Z M 21.640625 15.007812 C 21.84375 15.007812 22.035156 14.96875 22.214844 14.886719 C 22.394531 14.804688 22.554688 14.699219 22.6875 14.5625 C 22.820312 14.429688 22.925781 14.273438 23.007812 14.085938 C 23.085938 13.902344 23.125 13.707031 23.125 13.503906 C 23.125 13.300781 23.085938 13.109375 23.007812 12.925781 C 22.925781 12.746094 22.820312 12.582031 22.6875 12.449219 C 22.554688 12.3125 22.398438 12.207031 22.214844 12.125 C 22.035156 12.042969 21.839844 12.003906 21.640625 12.003906 C 21.4375 12.003906 21.246094 12.042969 21.066406 12.125 C 20.886719 12.207031 20.726562 12.3125 20.59375 12.449219 C 20.460938 12.582031 20.355469 12.738281 20.273438 12.925781 C 20.195312 13.109375 20.15625 13.304688 20.15625 13.503906 C 20.15625 13.710938 20.195312 13.902344 20.273438 14.085938 C 20.355469 14.265625 20.460938 14.429688 20.59375 14.5625 C 20.726562 14.699219 20.882812 14.804688 21.066406 14.886719 C 21.246094 14.96875 21.4375 15.007812 21.640625 15.007812 Z M 21.640625 15.007812 "/>
<path style=" stroke:none;fill-rule:nonzero;fill:rgb(27.45098%,67.843137%,28.235294%);fill-opacity:1;" d="M 26.945312 12.039062 C 27 12.078125 27.050781 12.125 27.101562 12.175781 C 27.269531 12.339844 27.402344 12.542969 27.503906 12.769531 C 27.601562 13 27.652344 13.242188 27.652344 13.503906 C 27.652344 13.773438 27.601562 14.015625 27.503906 14.246094 C 27.402344 14.472656 27.269531 14.667969 27.101562 14.839844 C 26.929688 15.007812 26.730469 15.144531 26.511719 15.238281 C 26.289062 15.335938 26.054688 15.386719 25.796875 15.386719 C 25.535156 15.386719 25.296875 15.335938 25.066406 15.238281 C 24.839844 15.144531 24.648438 15.007812 24.476562 14.839844 C 24.3125 14.675781 24.179688 14.476562 24.082031 14.246094 C 23.988281 14.019531 23.9375 13.773438 23.9375 13.503906 C 23.9375 13.242188 23.988281 13 24.082031 12.769531 C 24.179688 12.539062 24.3125 12.339844 24.476562 12.175781 C 24.527344 12.125 24.582031 12.074219 24.636719 12.027344 L 24.855469 12.347656 C 24.816406 12.375 24.78125 12.414062 24.746094 12.449219 C 24.613281 12.582031 24.507812 12.738281 24.425781 12.925781 C 24.347656 13.109375 24.308594 13.304688 24.308594 13.503906 C 24.308594 13.710938 24.347656 13.902344 24.425781 14.085938 C 24.507812 14.265625 24.613281 14.429688 24.746094 14.5625 C 24.882812 14.699219 25.035156 14.804688 25.21875 14.886719 C 25.398438 14.96875 25.59375 15.007812 25.792969 15.007812 C 26 15.007812 26.1875 14.96875 26.367188 14.886719 C 26.546875 14.804688 26.707031 14.699219 26.839844 14.5625 C 26.976562 14.429688 27.078125 14.273438 27.160156 14.085938 C 27.238281 13.902344 27.28125 13.707031 27.28125 13.503906 C 27.28125 13.300781 27.238281 13.109375 27.160156 12.925781 C 27.078125 12.746094 26.976562 12.582031 26.839844 12.449219 C 26.804688 12.414062 26.769531 12.375 26.730469 12.347656 Z M 26.945312 12.039062 "/>
<path style=" stroke:none;fill-rule:nonzero;fill:rgb(27.45098%,67.843137%,28.235294%);fill-opacity:1;" d="M 29.953125 11.632812 C 30.207031 11.632812 30.441406 11.679688 30.664062 11.78125 C 30.890625 11.882812 31.082031 12.019531 31.253906 12.191406 C 31.421875 12.363281 31.558594 12.5625 31.65625 12.785156 C 31.757812 13.011719 31.804688 13.25 31.804688 13.503906 L 31.804688 15.378906 L 31.4375 15.378906 L 31.4375 13.503906 C 31.4375 13.300781 31.398438 13.109375 31.316406 12.925781 C 31.238281 12.746094 31.132812 12.582031 31 12.449219 C 30.863281 12.3125 30.710938 12.207031 30.523438 12.125 C 30.34375 12.042969 30.152344 12.003906 29.953125 12.003906 C 29.746094 12.003906 29.558594 12.042969 29.378906 12.125 C 29.199219 12.207031 29.039062 12.3125 28.90625 12.449219 C 28.769531 12.582031 28.664062 12.738281 28.585938 12.925781 C 28.503906 13.109375 28.464844 13.304688 28.464844 13.503906 L 28.464844 15.378906 L 28.097656 15.378906 L 28.097656 13.503906 C 28.097656 13.25 28.148438 13.011719 28.242188 12.785156 C 28.335938 12.558594 28.472656 12.363281 28.636719 12.191406 C 28.800781 12.019531 28.996094 11.882812 29.222656 11.78125 C 29.441406 11.679688 29.6875 11.632812 29.953125 11.632812 Z M 29.953125 11.632812 "/>
<path style=" stroke:none;fill-rule:nonzero;fill:rgb(27.45098%,67.843137%,28.235294%);fill-opacity:1;" d="M 25.609375 11.632812 L 25.976562 11.632812 L 25.976562 13.046875 L 25.609375 13.046875 Z M 25.609375 11.632812 "/>
</g>
</svg>
