<?xml version="1.0" encoding="utf-8"?>
<!-- Generator: Adobe Illustrator 22.0.1, SVG Export Plug-In . SVG Version: 6.00 Build 0)  -->
<svg version="1.1" id="Livello_1" xmlns="http://www.w3.org/2000/svg" xmlns:xlink="http://www.w3.org/1999/xlink" x="0px" y="0px"
	 viewBox="0 0 841.9 595.3" enable-background="new 0 0 841.9 595.3" xml:space="preserve">
<g>
	<g>
		<path fill="#468AC0" d="M284.2,290.2c-1.8,2.4-3.9,4.6-6.2,6.5c-3.2,2.7-6.8,4.8-10.8,6.3c-4,1.5-8.3,2.2-12.7,2.2
			c-5.3,0-10.1-1-14.7-2.9c-4.5-1.9-8.4-4.6-11.8-7.9c-3.3-3.3-6-7.2-7.9-11.8c-1.9-4.5-2.9-9.4-2.9-14.7c0-5.2,1-10,2.9-14.6
			c1.9-4.6,4.6-8.5,7.9-11.8c3.3-3.3,7.2-6,11.8-7.9c4.5-1.9,9.4-2.9,14.7-2.9c4.5,0,8.7,0.7,12.7,2.2c4,1.5,7.6,3.6,10.8,6.3
			c2.3,1.9,4.3,4.1,6.2,6.5l-6,4.1c-1.5-2-3.3-3.8-5.3-5.3c-2.5-2-5.3-3.5-8.4-4.7c-3.1-1.1-6.4-1.7-10-1.7c-4.1,0-7.9,0.8-11.5,2.4
			c-3.6,1.6-6.8,3.7-9.5,6.4c-2.7,2.7-4.8,5.8-6.4,9.5c-1.6,3.6-2.4,7.5-2.4,11.5c0,4.1,0.8,7.9,2.4,11.5c1.6,3.6,3.7,6.8,6.4,9.5
			c2.7,2.7,5.8,4.8,9.5,6.4c3.6,1.6,7.5,2.4,11.5,2.4c3.6,0,6.9-0.6,10-1.7c3.1-1.1,5.9-2.7,8.4-4.7c2-1.6,3.7-3.3,5.3-5.3
			L284.2,290.2z"/>
		<path fill="#468AC0" d="M334.1,230.8c5.1,0,9.8,1,14.3,2.9c4.5,1.9,8.4,4.6,11.8,7.9c3.4,3.3,6.1,7.3,8.1,11.8c2,4.6,3,9.4,3,14.6
			h-7.4c0-4.1-0.8-7.9-2.4-11.5c-1.6-3.6-3.7-6.8-6.4-9.5c-2.7-2.7-5.8-4.8-9.5-6.4c-3.6-1.6-7.5-2.4-11.5-2.4
			c-4.1,0-7.9,0.8-11.5,2.4c-3.6,1.6-6.8,3.7-9.5,6.4c-2.7,2.7-4.8,5.8-6.4,9.5c-1.6,3.6-2.4,7.5-2.4,11.5v37.2h-7.4V268
			c0-5.2,1-10,2.9-14.6c1.9-4.6,4.6-8.5,7.9-11.8c3.3-3.3,7.2-6,11.8-7.9C323.9,231.8,328.8,230.8,334.1,230.8z"/>
		<path fill="#468AC0" d="M380.2,305.2v-74.4h7.4v74.4H380.2z"/>
		<path fill="#468AC0" d="M433.8,230.8c5.1,0,9.8,1,14.3,2.9c4.5,1.9,8.4,4.6,11.8,7.9c3.4,3.3,6.1,7.3,8.1,11.8c2,4.6,3,9.4,3,14.6
			c0,5.3-1,10.1-3,14.7c-2,4.5-4.7,8.4-8.1,11.8c-3.4,3.3-7.4,6-11.8,7.9c-4.5,1.9-9.2,2.9-14.3,2.9c-5.3,0-10.1-1-14.7-2.9
			c-4.5-1.9-8.4-4.6-11.8-7.9c-3.3-3.3-6-7.2-7.9-11.8c-1.9-4.5-2.9-9.4-2.9-14.7c0-5.2,1-10,2.9-14.6c1.9-4.6,4.6-8.5,7.9-11.8
			c3.3-3.3,7.2-6,11.8-7.9C423.6,231.8,428.5,230.8,433.8,230.8z M433.8,297.8c4.1,0,7.9-0.8,11.5-2.4c3.6-1.6,6.8-3.7,9.5-6.4
			c2.7-2.7,4.8-5.8,6.4-9.5c1.6-3.6,2.4-7.5,2.4-11.5c0-4.1-0.8-7.9-2.4-11.5c-1.6-3.6-3.7-6.8-6.4-9.5c-2.7-2.7-5.8-4.8-9.5-6.4
			c-3.6-1.6-7.5-2.4-11.5-2.4c-4.1,0-7.9,0.8-11.5,2.4c-3.6,1.6-6.8,3.7-9.5,6.4c-2.7,2.7-4.8,5.8-6.4,9.5
			c-1.6,3.6-2.4,7.5-2.4,11.5c0,4.1,0.8,7.9,2.4,11.5c1.6,3.6,3.7,6.8,6.4,9.5c2.7,2.7,5.8,4.8,9.5,6.4
			C425.9,297,429.7,297.8,433.8,297.8z"/>
		<path fill="#46AD48" d="M540.2,238.9c1.1,0.8,2.1,1.7,3.1,2.7c3.4,3.3,6.1,7.3,8.1,11.8c2,4.6,3,9.4,3,14.6c0,5.3-1,10.1-3,14.7
			c-2,4.5-4.7,8.4-8.1,11.8c-3.4,3.3-7.4,6-11.8,7.9c-4.5,1.9-9.2,2.9-14.3,2.9c-5.3,0-10.1-1-14.7-2.9c-4.5-1.9-8.4-4.6-11.8-7.9
			c-3.3-3.3-6-7.2-7.9-11.8c-1.9-4.5-2.9-9.4-2.9-14.7c0-5.2,1-10,2.9-14.6c1.9-4.6,4.6-8.5,7.9-11.8c1-1,2.1-2,3.2-2.9l4.4,6.3
			c-0.8,0.6-1.5,1.3-2.2,2c-2.7,2.7-4.8,5.8-6.4,9.5c-1.6,3.6-2.4,7.5-2.4,11.5c0,4.1,0.8,7.9,2.4,11.5c1.6,3.6,3.7,6.8,6.4,9.5
			c2.7,2.7,5.8,4.8,9.5,6.4c3.6,1.6,7.5,2.4,11.5,2.4c4.1,0,7.9-0.8,11.5-2.4c3.6-1.6,6.8-3.7,9.5-6.4c2.7-2.7,4.8-5.8,6.4-9.5
			c1.6-3.6,2.4-7.5,2.4-11.5c0-4.1-0.8-7.9-2.4-11.5c-1.6-3.6-3.7-6.8-6.4-9.5c-0.7-0.7-1.4-1.4-2.2-2L540.2,238.9z"/>
		<path fill="#46AD48" d="M600.5,230.8c5.1,0,9.8,1,14.3,3c4.5,2,8.4,4.7,11.8,8.1c3.4,3.4,6.1,7.4,8.1,11.8c2,4.5,3,9.2,3,14.3
			v37.2h-7.4V268c0-4.1-0.8-7.9-2.4-11.5c-1.6-3.6-3.7-6.8-6.4-9.5c-2.7-2.7-5.8-4.8-9.5-6.4c-3.6-1.6-7.5-2.4-11.5-2.4
			c-4.1,0-7.9,0.8-11.5,2.4c-3.6,1.6-6.8,3.7-9.5,6.4c-2.7,2.7-4.8,5.8-6.4,9.5c-1.6,3.6-2.4,7.5-2.4,11.5v37.2h-7.4V268
			c0-5.1,1-9.8,2.9-14.3c1.9-4.5,4.6-8.4,7.9-11.8c3.3-3.4,7.2-6.1,11.8-8.1C590.3,231.8,595.2,230.8,600.5,230.8z"/>
	</g>
	<rect x="513.4" y="230.8" fill="#46AD48" width="7.4" height="28.1"/>
	<!-- <rect x="513.4" y="230.8" fill="#46AD48" width="7.4" height="28.1"/> -->
</g>
</svg>
